<svg width="900" height="360" viewBox="0 0 900 360" fill="none" xmlns="http://www.w3.org/2000/svg" aria-hidden="true">
  <g opacity=".66">
    <path d="M43 52h814v256H43V52Z" stroke="#8A2F2A" stroke-width="1.4"/>
    <path d="M69 78h762v204H69V78Z" stroke="#B6A06C" stroke-width="1"/>
    <path d="M43 52l62 56M857 52l-62 56M43 308l62-56M857 308l-62-56" stroke="#8A2F2A" stroke-width="1"/>
    <path d="M147 180h606M450 78v204" stroke="#1D1B18" stroke-width="1" opacity=".32" stroke-dasharray="7 12"/>
    <path d="M221 142c30-36 72-36 104 0 30 34 72 34 104 0M471 218c30 36 72 36 104 0 30-34 72-34 104 0" stroke="#8A2F2A" stroke-width="1.1" stroke-linecap="round"/>
    <circle cx="147" cy="180" r="5" fill="#8A2F2A"/>
    <circle cx="753" cy="180" r="5" fill="#8A2F2A"/>
    <circle cx="450" cy="180" r="7" stroke="#B6A06C" stroke-width="1"/>
  </g>
</svg>
